  0
SECTION
  2
BLOCKS
  0
ENDSEC
  0
SECTION
  2
ENTITIES
  0
LINE
  8
0
 10
0
 11
0
 20
1.5
 21
3.3
  0
LINE
  8
0
 10
0
 11
2.1
 20
3.3
 21
3.3
  0
LINE
  8
0
 10
2.1
 11
2.1
 20
3.3
 21
4.46
  0
LINE
  8
0
 10
2.1
 11
0
 20
4.46
 21
4.46
  0
LINE
  8
0
 10
0
 11
0
 20
4.46
 21
21.06
  0
LINE
  8
0
 10
0
 11
2.1
 20
21.06
 21
21.06
  0
LINE
  8
0
 10
2.1
 11
2.1
 20
21.06
 21
22.45
  0
LINE
  8
0
 10
2.1
 11
0
 20
22.45
 21
22.45
  0
LINE
  8
0
 10
0
 11
0
 20
22.45
 21
24.25
  0
LINE
  8
0
 10
0
 11
0.003
 20
24.25
 21
24.348
  0
LINE
  8
0
 10
0.003
 11
0.013
 20
24.348
 21
24.446
  0
LINE
  8
0
 10
0.013
 11
0.029
 20
24.446
 21
24.543
  0
LINE
  8
0
 10
0.029
 11
0.051
 20
24.543
 21
24.638
  0
LINE
  8
0
 10
0.051
 11
0.08
 20
24.638
 21
24.732
  0
LINE
  8
0
 10
0.08
 11
0.114
 20
24.732
 21
24.824
  0
LINE
  8
0
 10
0.114
 11
0.155
 20
24.824
 21
24.913
  0
LINE
  8
0
 10
0.155
 11
0.201
 20
24.913
 21
25
  0
LINE
  8
0
 10
0.201
 11
0.253
 20
25
 21
25.083
  0
LINE
  8
0
 10
0.253
 11
0.31
 20
25.083
 21
25.163
  0
LINE
  8
0
 10
0.31
 11
0.372
 20
25.163
 21
25.239
  0
LINE
  8
0
 10
0.372
 11
0.439
 20
25.239
 21
25.311
  0
LINE
  8
0
 10
0.439
 11
0.511
 20
25.311
 21
25.378
  0
LINE
  8
0
 10
0.511
 11
0.587
 20
25.378
 21
25.44
  0
LINE
  8
0
 10
0.587
 11
0.667
 20
25.44
 21
25.497
  0
LINE
  8
0
 10
0.667
 11
0.75
 20
25.497
 21
25.549
  0
LINE
  8
0
 10
0.75
 11
0.837
 20
25.549
 21
25.595
  0
LINE
  8
0
 10
0.837
 11
0.926
 20
25.595
 21
25.636
  0
LINE
  8
0
 10
0.926
 11
1.018
 20
25.636
 21
25.67
  0
LINE
  8
0
 10
1.018
 11
1.112
 20
25.67
 21
25.699
  0
LINE
  8
0
 10
1.112
 11
1.207
 20
25.699
 21
25.721
  0
LINE
  8
0
 10
1.207
 11
1.304
 20
25.721
 21
25.737
  0
LINE
  8
0
 10
1.304
 11
1.402
 20
25.737
 21
25.747
  0
LINE
  8
0
 10
1.402
 11
1.5
 20
25.747
 21
25.75
  0
LINE
  8
0
 10
1.5
 11
3.9
 20
25.75
 21
25.75
  0
LINE
  8
0
 10
3.9
 11
3.998
 20
25.75
 21
25.747
  0
LINE
  8
0
 10
3.998
 11
4.096
 20
25.747
 21
25.737
  0
LINE
  8
0
 10
4.096
 11
4.193
 20
25.737
 21
25.721
  0
LINE
  8
0
 10
4.193
 11
4.288
 20
25.721
 21
25.699
  0
LINE
  8
0
 10
4.288
 11
4.382
 20
25.699
 21
25.67
  0
LINE
  8
0
 10
4.382
 11
4.474
 20
25.67
 21
25.636
  0
LINE
  8
0
 10
4.474
 11
4.563
 20
25.636
 21
25.595
  0
LINE
  8
0
 10
4.563
 11
4.65
 20
25.595
 21
25.549
  0
LINE
  8
0
 10
4.65
 11
4.733
 20
25.549
 21
25.497
  0
LINE
  8
0
 10
4.733
 11
4.813
 20
25.497
 21
25.44
  0
LINE
  8
0
 10
4.813
 11
4.889
 20
25.44
 21
25.378
  0
LINE
  8
0
 10
4.889
 11
4.961
 20
25.378
 21
25.311
  0
LINE
  8
0
 10
4.961
 11
5.028
 20
25.311
 21
25.239
  0
LINE
  8
0
 10
5.028
 11
5.09
 20
25.239
 21
25.163
  0
LINE
  8
0
 10
5.09
 11
5.147
 20
25.163
 21
25.083
  0
LINE
  8
0
 10
5.147
 11
5.199
 20
25.083
 21
25
  0
LINE
  8
0
 10
5.199
 11
5.245
 20
25
 21
24.913
  0
LINE
  8
0
 10
5.245
 11
5.286
 20
24.913
 21
24.824
  0
LINE
  8
0
 10
5.286
 11
5.32
 20
24.824
 21
24.732
  0
LINE
  8
0
 10
5.32
 11
5.349
 20
24.732
 21
24.638
  0
LINE
  8
0
 10
5.349
 11
5.371
 20
24.638
 21
24.543
  0
LINE
  8
0
 10
5.371
 11
5.387
 20
24.543
 21
24.446
  0
LINE
  8
0
 10
5.387
 11
5.397
 20
24.446
 21
24.348
  0
LINE
  8
0
 10
5.397
 11
5.4
 20
24.348
 21
24.25
  0
LINE
  8
0
 10
5.4
 11
5.4
 20
24.25
 21
1.5
  0
LINE
  8
0
 10
5.4
 11
5.397
 20
1.5
 21
1.402
  0
LINE
  8
0
 10
5.397
 11
5.387
 20
1.402
 21
1.304
  0
LINE
  8
0
 10
5.387
 11
5.371
 20
1.304
 21
1.207
  0
LINE
  8
0
 10
5.371
 11
5.349
 20
1.207
 21
1.112
  0
LINE
  8
0
 10
5.349
 11
5.32
 20
1.112
 21
1.018
  0
LINE
  8
0
 10
5.32
 11
5.286
 20
1.018
 21
0.926
  0
LINE
  8
0
 10
5.286
 11
5.245
 20
0.926
 21
0.837
  0
LINE
  8
0
 10
5.245
 11
5.199
 20
0.837
 21
0.75
  0
LINE
  8
0
 10
5.199
 11
5.147
 20
0.75
 21
0.667
  0
LINE
  8
0
 10
5.147
 11
5.09
 20
0.667
 21
0.587
  0
LINE
  8
0
 10
5.09
 11
5.028
 20
0.587
 21
0.511
  0
LINE
  8
0
 10
5.028
 11
4.961
 20
0.511
 21
0.439
  0
LINE
  8
0
 10
4.961
 11
4.889
 20
0.439
 21
0.372
  0
LINE
  8
0
 10
4.889
 11
4.813
 20
0.372
 21
0.31
  0
LINE
  8
0
 10
4.813
 11
4.733
 20
0.31
 21
0.253
  0
LINE
  8
0
 10
4.733
 11
4.65
 20
0.253
 21
0.201
  0
LINE
  8
0
 10
4.65
 11
4.563
 20
0.201
 21
0.155
  0
LINE
  8
0
 10
4.563
 11
4.474
 20
0.155
 21
0.114
  0
LINE
  8
0
 10
4.474
 11
4.382
 20
0.114
 21
0.08
  0
LINE
  8
0
 10
4.382
 11
4.288
 20
0.08
 21
0.051
  0
LINE
  8
0
 10
4.288
 11
4.193
 20
0.051
 21
0.029
  0
LINE
  8
0
 10
4.193
 11
4.096
 20
0.029
 21
0.013
  0
LINE
  8
0
 10
4.096
 11
3.998
 20
0.013
 21
0.003
  0
LINE
  8
0
 10
3.998
 11
3.9
 20
0.003
 21
0
  0
LINE
  8
0
 10
3.9
 11
1.5
 20
0
 21
0
  0
LINE
  8
0
 10
1.5
 11
1.402
 20
0
 21
0.003
  0
LINE
  8
0
 10
1.402
 11
1.304
 20
0.003
 21
0.013
  0
LINE
  8
0
 10
1.304
 11
1.207
 20
0.013
 21
0.029
  0
LINE
  8
0
 10
1.207
 11
1.112
 20
0.029
 21
0.051
  0
LINE
  8
0
 10
1.112
 11
1.018
 20
0.051
 21
0.08
  0
LINE
  8
0
 10
1.018
 11
0.926
 20
0.08
 21
0.114
  0
LINE
  8
0
 10
0.926
 11
0.837
 20
0.114
 21
0.155
  0
LINE
  8
0
 10
0.837
 11
0.75
 20
0.155
 21
0.201
  0
LINE
  8
0
 10
0.75
 11
0.667
 20
0.201
 21
0.253
  0
LINE
  8
0
 10
0.667
 11
0.587
 20
0.253
 21
0.31
  0
LINE
  8
0
 10
0.587
 11
0.511
 20
0.31
 21
0.372
  0
LINE
  8
0
 10
0.511
 11
0.439
 20
0.372
 21
0.439
  0
LINE
  8
0
 10
0.439
 11
0.372
 20
0.439
 21
0.511
  0
LINE
  8
0
 10
0.372
 11
0.31
 20
0.511
 21
0.587
  0
LINE
  8
0
 10
0.31
 11
0.253
 20
0.587
 21
0.667
  0
LINE
  8
0
 10
0.253
 11
0.201
 20
0.667
 21
0.75
  0
LINE
  8
0
 10
0.201
 11
0.155
 20
0.75
 21
0.837
  0
LINE
  8
0
 10
0.155
 11
0.114
 20
0.837
 21
0.926
  0
LINE
  8
0
 10
0.114
 11
0.08
 20
0.926
 21
1.018
  0
LINE
  8
0
 10
0.08
 11
0.051
 20
1.018
 21
1.112
  0
LINE
  8
0
 10
0.051
 11
0.029
 20
1.112
 21
1.207
  0
LINE
  8
0
 10
0.029
 11
0.013
 20
1.207
 21
1.304
  0
LINE
  8
0
 10
0.013
 11
0.003
 20
1.304
 21
1.402
  0
LINE
  8
0
 10
0.003
 11
0
 20
1.402
 21
1.5
  0
LINE
  8
0
 10
6.9
 11
6.9
 20
1.5
 21
3.3
  0
LINE
  8
0
 10
6.9
 11
9
 20
3.3
 21
3.3
  0
LINE
  8
0
 10
9
 11
9
 20
3.3
 21
4.46
  0
LINE
  8
0
 10
9
 11
6.9
 20
4.46
 21
4.46
  0
LINE
  8
0
 10
6.9
 11
6.9
 20
4.46
 21
21.06
  0
LINE
  8
0
 10
6.9
 11
9
 20
21.06
 21
21.06
  0
LINE
  8
0
 10
9
 11
9
 20
21.06
 21
22.45
  0
LINE
  8
0
 10
9
 11
6.9
 20
22.45
 21
22.45
  0
LINE
  8
0
 10
6.9
 11
6.9
 20
22.45
 21
24.25
  0
LINE
  8
0
 10
6.9
 11
6.903
 20
24.25
 21
24.348
  0
LINE
  8
0
 10
6.903
 11
6.913
 20
24.348
 21
24.446
  0
LINE
  8
0
 10
6.913
 11
6.929
 20
24.446
 21
24.543
  0
LINE
  8
0
 10
6.929
 11
6.951
 20
24.543
 21
24.638
  0
LINE
  8
0
 10
6.951
 11
6.98
 20
24.638
 21
24.732
  0
LINE
  8
0
 10
6.98
 11
7.014
 20
24.732
 21
24.824
  0
LINE
  8
0
 10
7.014
 11
7.055
 20
24.824
 21
24.913
  0
LINE
  8
0
 10
7.055
 11
7.101
 20
24.913
 21
25
  0
LINE
  8
0
 10
7.101
 11
7.153
 20
25
 21
25.083
  0
LINE
  8
0
 10
7.153
 11
7.21
 20
25.083
 21
25.163
  0
LINE
  8
0
 10
7.21
 11
7.272
 20
25.163
 21
25.239
  0
LINE
  8
0
 10
7.272
 11
7.339
 20
25.239
 21
25.311
  0
LINE
  8
0
 10
7.339
 11
7.411
 20
25.311
 21
25.378
  0
LINE
  8
0
 10
7.411
 11
7.487
 20
25.378
 21
25.44
  0
LINE
  8
0
 10
7.487
 11
7.567
 20
25.44
 21
25.497
  0
LINE
  8
0
 10
7.567
 11
7.65
 20
25.497
 21
25.549
  0
LINE
  8
0
 10
7.65
 11
7.737
 20
25.549
 21
25.595
  0
LINE
  8
0
 10
7.737
 11
7.826
 20
25.595
 21
25.636
  0
LINE
  8
0
 10
7.826
 11
7.918
 20
25.636
 21
25.67
  0
LINE
  8
0
 10
7.918
 11
8.012
 20
25.67
 21
25.699
  0
LINE
  8
0
 10
8.012
 11
8.107
 20
25.699
 21
25.721
  0
LINE
  8
0
 10
8.107
 11
8.204
 20
25.721
 21
25.737
  0
LINE
  8
0
 10
8.204
 11
8.302
 20
25.737
 21
25.747
  0
LINE
  8
0
 10
8.302
 11
8.4
 20
25.747
 21
25.75
  0
LINE
  8
0
 10
8.4
 11
10.8
 20
25.75
 21
25.75
  0
LINE
  8
0
 10
10.8
 11
10.898
 20
25.75
 21
25.747
  0
LINE
  8
0
 10
10.898
 11
10.996
 20
25.747
 21
25.737
  0
LINE
  8
0
 10
10.996
 11
11.093
 20
25.737
 21
25.721
  0
LINE
  8
0
 10
11.093
 11
11.188
 20
25.721
 21
25.699
  0
LINE
  8
0
 10
11.188
 11
11.282
 20
25.699
 21
25.67
  0
LINE
  8
0
 10
11.282
 11
11.374
 20
25.67
 21
25.636
  0
LINE
  8
0
 10
11.374
 11
11.463
 20
25.636
 21
25.595
  0
LINE
  8
0
 10
11.463
 11
11.55
 20
25.595
 21
25.549
  0
LINE
  8
0
 10
11.55
 11
11.633
 20
25.549
 21
25.497
  0
LINE
  8
0
 10
11.633
 11
11.713
 20
25.497
 21
25.44
  0
LINE
  8
0
 10
11.713
 11
11.789
 20
25.44
 21
25.378
  0
LINE
  8
0
 10
11.789
 11
11.861
 20
25.378
 21
25.311
  0
LINE
  8
0
 10
11.861
 11
11.928
 20
25.311
 21
25.239
  0
LINE
  8
0
 10
11.928
 11
11.99
 20
25.239
 21
25.163
  0
LINE
  8
0
 10
11.99
 11
12.047
 20
25.163
 21
25.083
  0
LINE
  8
0
 10
12.047
 11
12.099
 20
25.083
 21
25
  0
LINE
  8
0
 10
12.099
 11
12.145
 20
25
 21
24.913
  0
LINE
  8
0
 10
12.145
 11
12.186
 20
24.913
 21
24.824
  0
LINE
  8
0
 10
12.186
 11
12.22
 20
24.824
 21
24.732
  0
LINE
  8
0
 10
12.22
 11
12.249
 20
24.732
 21
24.638
  0
LINE
  8
0
 10
12.249
 11
12.271
 20
24.638
 21
24.543
  0
LINE
  8
0
 10
12.271
 11
12.287
 20
24.543
 21
24.446
  0
LINE
  8
0
 10
12.287
 11
12.297
 20
24.446
 21
24.348
  0
LINE
  8
0
 10
12.297
 11
12.3
 20
24.348
 21
24.25
  0
LINE
  8
0
 10
12.3
 11
12.3
 20
24.25
 21
1.5
  0
LINE
  8
0
 10
12.3
 11
12.297
 20
1.5
 21
1.402
  0
LINE
  8
0
 10
12.297
 11
12.287
 20
1.402
 21
1.304
  0
LINE
  8
0
 10
12.287
 11
12.271
 20
1.304
 21
1.207
  0
LINE
  8
0
 10
12.271
 11
12.249
 20
1.207
 21
1.112
  0
LINE
  8
0
 10
12.249
 11
12.22
 20
1.112
 21
1.018
  0
LINE
  8
0
 10
12.22
 11
12.186
 20
1.018
 21
0.926
  0
LINE
  8
0
 10
12.186
 11
12.145
 20
0.926
 21
0.837
  0
LINE
  8
0
 10
12.145
 11
12.099
 20
0.837
 21
0.75
  0
LINE
  8
0
 10
12.099
 11
12.047
 20
0.75
 21
0.667
  0
LINE
  8
0
 10
12.047
 11
11.99
 20
0.667
 21
0.587
  0
LINE
  8
0
 10
11.99
 11
11.928
 20
0.587
 21
0.511
  0
LINE
  8
0
 10
11.928
 11
11.861
 20
0.511
 21
0.439
  0
LINE
  8
0
 10
11.861
 11
11.789
 20
0.439
 21
0.372
  0
LINE
  8
0
 10
11.789
 11
11.713
 20
0.372
 21
0.31
  0
LINE
  8
0
 10
11.713
 11
11.633
 20
0.31
 21
0.253
  0
LINE
  8
0
 10
11.633
 11
11.55
 20
0.253
 21
0.201
  0
LINE
  8
0
 10
11.55
 11
11.463
 20
0.201
 21
0.155
  0
LINE
  8
0
 10
11.463
 11
11.374
 20
0.155
 21
0.114
  0
LINE
  8
0
 10
11.374
 11
11.282
 20
0.114
 21
0.08
  0
LINE
  8
0
 10
11.282
 11
11.188
 20
0.08
 21
0.051
  0
LINE
  8
0
 10
11.188
 11
11.093
 20
0.051
 21
0.029
  0
LINE
  8
0
 10
11.093
 11
10.996
 20
0.029
 21
0.013
  0
LINE
  8
0
 10
10.996
 11
10.898
 20
0.013
 21
0.003
  0
LINE
  8
0
 10
10.898
 11
10.8
 20
0.003
 21
0
  0
LINE
  8
0
 10
10.8
 11
8.4
 20
0
 21
0
  0
LINE
  8
0
 10
8.4
 11
8.302
 20
0
 21
0.003
  0
LINE
  8
0
 10
8.302
 11
8.204
 20
0.003
 21
0.013
  0
LINE
  8
0
 10
8.204
 11
8.107
 20
0.013
 21
0.029
  0
LINE
  8
0
 10
8.107
 11
8.012
 20
0.029
 21
0.051
  0
LINE
  8
0
 10
8.012
 11
7.918
 20
0.051
 21
0.08
  0
LINE
  8
0
 10
7.918
 11
7.826
 20
0.08
 21
0.114
  0
LINE
  8
0
 10
7.826
 11
7.737
 20
0.114
 21
0.155
  0
LINE
  8
0
 10
7.737
 11
7.65
 20
0.155
 21
0.201
  0
LINE
  8
0
 10
7.65
 11
7.567
 20
0.201
 21
0.253
  0
LINE
  8
0
 10
7.567
 11
7.487
 20
0.253
 21
0.31
  0
LINE
  8
0
 10
7.487
 11
7.411
 20
0.31
 21
0.372
  0
LINE
  8
0
 10
7.411
 11
7.339
 20
0.372
 21
0.439
  0
LINE
  8
0
 10
7.339
 11
7.272
 20
0.439
 21
0.511
  0
LINE
  8
0
 10
7.272
 11
7.21
 20
0.511
 21
0.587
  0
LINE
  8
0
 10
7.21
 11
7.153
 20
0.587
 21
0.667
  0
LINE
  8
0
 10
7.153
 11
7.101
 20
0.667
 21
0.75
  0
LINE
  8
0
 10
7.101
 11
7.055
 20
0.75
 21
0.837
  0
LINE
  8
0
 10
7.055
 11
7.014
 20
0.837
 21
0.926
  0
LINE
  8
0
 10
7.014
 11
6.98
 20
0.926
 21
1.018
  0
LINE
  8
0
 10
6.98
 11
6.951
 20
1.018
 21
1.112
  0
LINE
  8
0
 10
6.951
 11
6.929
 20
1.112
 21
1.207
  0
LINE
  8
0
 10
6.929
 11
6.913
 20
1.207
 21
1.304
  0
LINE
  8
0
 10
6.913
 11
6.903
 20
1.304
 21
1.402
  0
LINE
  8
0
 10
6.903
 11
6.9
 20
1.402
 21
1.5
  0
LINE
  8
0
 10
13.8
 11
13.8
 20
1.5
 21
3.3
  0
LINE
  8
0
 10
13.8
 11
15.9
 20
3.3
 21
3.3
  0
LINE
  8
0
 10
15.9
 11
15.9
 20
3.3
 21
4.46
  0
LINE
  8
0
 10
15.9
 11
13.8
 20
4.46
 21
4.46
  0
LINE
  8
0
 10
13.8
 11
13.8
 20
4.46
 21
21.06
  0
LINE
  8
0
 10
13.8
 11
15.9
 20
21.06
 21
21.06
  0
LINE
  8
0
 10
15.9
 11
15.9
 20
21.06
 21
22.45
  0
LINE
  8
0
 10
15.9
 11
13.8
 20
22.45
 21
22.45
  0
LINE
  8
0
 10
13.8
 11
13.8
 20
22.45
 21
24.25
  0
LINE
  8
0
 10
13.8
 11
13.803
 20
24.25
 21
24.348
  0
LINE
  8
0
 10
13.803
 11
13.813
 20
24.348
 21
24.446
  0
LINE
  8
0
 10
13.813
 11
13.829
 20
24.446
 21
24.543
  0
LINE
  8
0
 10
13.829
 11
13.851
 20
24.543
 21
24.638
  0
LINE
  8
0
 10
13.851
 11
13.88
 20
24.638
 21
24.732
  0
LINE
  8
0
 10
13.88
 11
13.914
 20
24.732
 21
24.824
  0
LINE
  8
0
 10
13.914
 11
13.955
 20
24.824
 21
24.913
  0
LINE
  8
0
 10
13.955
 11
14.001
 20
24.913
 21
25
  0
LINE
  8
0
 10
14.001
 11
14.053
 20
25
 21
25.083
  0
LINE
  8
0
 10
14.053
 11
14.11
 20
25.083
 21
25.163
  0
LINE
  8
0
 10
14.11
 11
14.172
 20
25.163
 21
25.239
  0
LINE
  8
0
 10
14.172
 11
14.239
 20
25.239
 21
25.311
  0
LINE
  8
0
 10
14.239
 11
14.311
 20
25.311
 21
25.378
  0
LINE
  8
0
 10
14.311
 11
14.387
 20
25.378
 21
25.44
  0
LINE
  8
0
 10
14.387
 11
14.467
 20
25.44
 21
25.497
  0
LINE
  8
0
 10
14.467
 11
14.55
 20
25.497
 21
25.549
  0
LINE
  8
0
 10
14.55
 11
14.637
 20
25.549
 21
25.595
  0
LINE
  8
0
 10
14.637
 11
14.726
 20
25.595
 21
25.636
  0
LINE
  8
0
 10
14.726
 11
14.818
 20
25.636
 21
25.67
  0
LINE
  8
0
 10
14.818
 11
14.912
 20
25.67
 21
25.699
  0
LINE
  8
0
 10
14.912
 11
15.007
 20
25.699
 21
25.721
  0
LINE
  8
0
 10
15.007
 11
15.104
 20
25.721
 21
25.737
  0
LINE
  8
0
 10
15.104
 11
15.202
 20
25.737
 21
25.747
  0
LINE
  8
0
 10
15.202
 11
15.3
 20
25.747
 21
25.75
  0
LINE
  8
0
 10
15.3
 11
17.7
 20
25.75
 21
25.75
  0
LINE
  8
0
 10
17.7
 11
17.798
 20
25.75
 21
25.747
  0
LINE
  8
0
 10
17.798
 11
17.896
 20
25.747
 21
25.737
  0
LINE
  8
0
 10
17.896
 11
17.993
 20
25.737
 21
25.721
  0
LINE
  8
0
 10
17.993
 11
18.088
 20
25.721
 21
25.699
  0
LINE
  8
0
 10
18.088
 11
18.182
 20
25.699
 21
25.67
  0
LINE
  8
0
 10
18.182
 11
18.274
 20
25.67
 21
25.636
  0
LINE
  8
0
 10
18.274
 11
18.363
 20
25.636
 21
25.595
  0
LINE
  8
0
 10
18.363
 11
18.45
 20
25.595
 21
25.549
  0
LINE
  8
0
 10
18.45
 11
18.533
 20
25.549
 21
25.497
  0
LINE
  8
0
 10
18.533
 11
18.613
 20
25.497
 21
25.44
  0
LINE
  8
0
 10
18.613
 11
18.689
 20
25.44
 21
25.378
  0
LINE
  8
0
 10
18.689
 11
18.761
 20
25.378
 21
25.311
  0
LINE
  8
0
 10
18.761
 11
18.828
 20
25.311
 21
25.239
  0
LINE
  8
0
 10
18.828
 11
18.89
 20
25.239
 21
25.163
  0
LINE
  8
0
 10
18.89
 11
18.947
 20
25.163
 21
25.083
  0
LINE
  8
0
 10
18.947
 11
18.999
 20
25.083
 21
25
  0
LINE
  8
0
 10
18.999
 11
19.045
 20
25
 21
24.913
  0
LINE
  8
0
 10
19.045
 11
19.086
 20
24.913
 21
24.824
  0
LINE
  8
0
 10
19.086
 11
19.12
 20
24.824
 21
24.732
  0
LINE
  8
0
 10
19.12
 11
19.149
 20
24.732
 21
24.638
  0
LINE
  8
0
 10
19.149
 11
19.171
 20
24.638
 21
24.543
  0
LINE
  8
0
 10
19.171
 11
19.187
 20
24.543
 21
24.446
  0
LINE
  8
0
 10
19.187
 11
19.197
 20
24.446
 21
24.348
  0
LINE
  8
0
 10
19.197
 11
19.2
 20
24.348
 21
24.25
  0
LINE
  8
0
 10
19.2
 11
19.2
 20
24.25
 21
1.5
  0
LINE
  8
0
 10
19.2
 11
19.197
 20
1.5
 21
1.402
  0
LINE
  8
0
 10
19.197
 11
19.187
 20
1.402
 21
1.304
  0
LINE
  8
0
 10
19.187
 11
19.171
 20
1.304
 21
1.207
  0
LINE
  8
0
 10
19.171
 11
19.149
 20
1.207
 21
1.112
  0
LINE
  8
0
 10
19.149
 11
19.12
 20
1.112
 21
1.018
  0
LINE
  8
0
 10
19.12
 11
19.086
 20
1.018
 21
0.926
  0
LINE
  8
0
 10
19.086
 11
19.045
 20
0.926
 21
0.837
  0
LINE
  8
0
 10
19.045
 11
18.999
 20
0.837
 21
0.75
  0
LINE
  8
0
 10
18.999
 11
18.947
 20
0.75
 21
0.667
  0
LINE
  8
0
 10
18.947
 11
18.89
 20
0.667
 21
0.587
  0
LINE
  8
0
 10
18.89
 11
18.828
 20
0.587
 21
0.511
  0
LINE
  8
0
 10
18.828
 11
18.761
 20
0.511
 21
0.439
  0
LINE
  8
0
 10
18.761
 11
18.689
 20
0.439
 21
0.372
  0
LINE
  8
0
 10
18.689
 11
18.613
 20
0.372
 21
0.31
  0
LINE
  8
0
 10
18.613
 11
18.533
 20
0.31
 21
0.253
  0
LINE
  8
0
 10
18.533
 11
18.45
 20
0.253
 21
0.201
  0
LINE
  8
0
 10
18.45
 11
18.363
 20
0.201
 21
0.155
  0
LINE
  8
0
 10
18.363
 11
18.274
 20
0.155
 21
0.114
  0
LINE
  8
0
 10
18.274
 11
18.182
 20
0.114
 21
0.08
  0
LINE
  8
0
 10
18.182
 11
18.088
 20
0.08
 21
0.051
  0
LINE
  8
0
 10
18.088
 11
17.993
 20
0.051
 21
0.029
  0
LINE
  8
0
 10
17.993
 11
17.896
 20
0.029
 21
0.013
  0
LINE
  8
0
 10
17.896
 11
17.798
 20
0.013
 21
0.003
  0
LINE
  8
0
 10
17.798
 11
17.7
 20
0.003
 21
0
  0
LINE
  8
0
 10
17.7
 11
15.3
 20
0
 21
0
  0
LINE
  8
0
 10
15.3
 11
15.202
 20
0
 21
0.003
  0
LINE
  8
0
 10
15.202
 11
15.104
 20
0.003
 21
0.013
  0
LINE
  8
0
 10
15.104
 11
15.007
 20
0.013
 21
0.029
  0
LINE
  8
0
 10
15.007
 11
14.912
 20
0.029
 21
0.051
  0
LINE
  8
0
 10
14.912
 11
14.818
 20
0.051
 21
0.08
  0
LINE
  8
0
 10
14.818
 11
14.726
 20
0.08
 21
0.114
  0
LINE
  8
0
 10
14.726
 11
14.637
 20
0.114
 21
0.155
  0
LINE
  8
0
 10
14.637
 11
14.55
 20
0.155
 21
0.201
  0
LINE
  8
0
 10
14.55
 11
14.467
 20
0.201
 21
0.253
  0
LINE
  8
0
 10
14.467
 11
14.387
 20
0.253
 21
0.31
  0
LINE
  8
0
 10
14.387
 11
14.311
 20
0.31
 21
0.372
  0
LINE
  8
0
 10
14.311
 11
14.239
 20
0.372
 21
0.439
  0
LINE
  8
0
 10
14.239
 11
14.172
 20
0.439
 21
0.511
  0
LINE
  8
0
 10
14.172
 11
14.11
 20
0.511
 21
0.587
  0
LINE
  8
0
 10
14.11
 11
14.053
 20
0.587
 21
0.667
  0
LINE
  8
0
 10
14.053
 11
14.001
 20
0.667
 21
0.75
  0
LINE
  8
0
 10
14.001
 11
13.955
 20
0.75
 21
0.837
  0
LINE
  8
0
 10
13.955
 11
13.914
 20
0.837
 21
0.926
  0
LINE
  8
0
 10
13.914
 11
13.88
 20
0.926
 21
1.018
  0
LINE
  8
0
 10
13.88
 11
13.851
 20
1.018
 21
1.112
  0
LINE
  8
0
 10
13.851
 11
13.829
 20
1.112
 21
1.207
  0
LINE
  8
0
 10
13.829
 11
13.813
 20
1.207
 21
1.304
  0
LINE
  8
0
 10
13.813
 11
13.803
 20
1.304
 21
1.402
  0
LINE
  8
0
 10
13.803
 11
13.8
 20
1.402
 21
1.5
  0
LINE
  8
0
 10
20.7
 11
20.7
 20
1.5
 21
3.3
  0
LINE
  8
0
 10
20.7
 11
22.8
 20
3.3
 21
3.3
  0
LINE
  8
0
 10
22.8
 11
22.8
 20
3.3
 21
4.46
  0
LINE
  8
0
 10
22.8
 11
20.7
 20
4.46
 21
4.46
  0
LINE
  8
0
 10
20.7
 11
20.7
 20
4.46
 21
21.06
  0
LINE
  8
0
 10
20.7
 11
22.8
 20
21.06
 21
21.06
  0
LINE
  8
0
 10
22.8
 11
22.8
 20
21.06
 21
22.45
  0
LINE
  8
0
 10
22.8
 11
20.7
 20
22.45
 21
22.45
  0
LINE
  8
0
 10
20.7
 11
20.7
 20
22.45
 21
24.25
  0
LINE
  8
0
 10
20.7
 11
20.703
 20
24.25
 21
24.348
  0
LINE
  8
0
 10
20.703
 11
20.713
 20
24.348
 21
24.446
  0
LINE
  8
0
 10
20.713
 11
20.729
 20
24.446
 21
24.543
  0
LINE
  8
0
 10
20.729
 11
20.751
 20
24.543
 21
24.638
  0
LINE
  8
0
 10
20.751
 11
20.78
 20
24.638
 21
24.732
  0
LINE
  8
0
 10
20.78
 11
20.814
 20
24.732
 21
24.824
  0
LINE
  8
0
 10
20.814
 11
20.855
 20
24.824
 21
24.913
  0
LINE
  8
0
 10
20.855
 11
20.901
 20
24.913
 21
25
  0
LINE
  8
0
 10
20.901
 11
20.953
 20
25
 21
25.083
  0
LINE
  8
0
 10
20.953
 11
21.01
 20
25.083
 21
25.163
  0
LINE
  8
0
 10
21.01
 11
21.072
 20
25.163
 21
25.239
  0
LINE
  8
0
 10
21.072
 11
21.139
 20
25.239
 21
25.311
  0
LINE
  8
0
 10
21.139
 11
21.211
 20
25.311
 21
25.378
  0
LINE
  8
0
 10
21.211
 11
21.287
 20
25.378
 21
25.44
  0
LINE
  8
0
 10
21.287
 11
21.367
 20
25.44
 21
25.497
  0
LINE
  8
0
 10
21.367
 11
21.45
 20
25.497
 21
25.549
  0
LINE
  8
0
 10
21.45
 11
21.537
 20
25.549
 21
25.595
  0
LINE
  8
0
 10
21.537
 11
21.626
 20
25.595
 21
25.636
  0
LINE
  8
0
 10
21.626
 11
21.718
 20
25.636
 21
25.67
  0
LINE
  8
0
 10
21.718
 11
21.812
 20
25.67
 21
25.699
  0
LINE
  8
0
 10
21.812
 11
21.907
 20
25.699
 21
25.721
  0
LINE
  8
0
 10
21.907
 11
22.004
 20
25.721
 21
25.737
  0
LINE
  8
0
 10
22.004
 11
22.102
 20
25.737
 21
25.747
  0
LINE
  8
0
 10
22.102
 11
22.2
 20
25.747
 21
25.75
  0
LINE
  8
0
 10
22.2
 11
24.6
 20
25.75
 21
25.75
  0
LINE
  8
0
 10
24.6
 11
24.698
 20
25.75
 21
25.747
  0
LINE
  8
0
 10
24.698
 11
24.796
 20
25.747
 21
25.737
  0
LINE
  8
0
 10
24.796
 11
24.893
 20
25.737
 21
25.721
  0
LINE
  8
0
 10
24.893
 11
24.988
 20
25.721
 21
25.699
  0
LINE
  8
0
 10
24.988
 11
25.082
 20
25.699
 21
25.67
  0
LINE
  8
0
 10
25.082
 11
25.174
 20
25.67
 21
25.636
  0
LINE
  8
0
 10
25.174
 11
25.263
 20
25.636
 21
25.595
  0
LINE
  8
0
 10
25.263
 11
25.35
 20
25.595
 21
25.549
  0
LINE
  8
0
 10
25.35
 11
25.433
 20
25.549
 21
25.497
  0
LINE
  8
0
 10
25.433
 11
25.513
 20
25.497
 21
25.44
  0
LINE
  8
0
 10
25.513
 11
25.589
 20
25.44
 21
25.378
  0
LINE
  8
0
 10
25.589
 11
25.661
 20
25.378
 21
25.311
  0
LINE
  8
0
 10
25.661
 11
25.728
 20
25.311
 21
25.239
  0
LINE
  8
0
 10
25.728
 11
25.79
 20
25.239
 21
25.163
  0
LINE
  8
0
 10
25.79
 11
25.847
 20
25.163
 21
25.083
  0
LINE
  8
0
 10
25.847
 11
25.899
 20
25.083
 21
25
  0
LINE
  8
0
 10
25.899
 11
25.945
 20
25
 21
24.913
  0
LINE
  8
0
 10
25.945
 11
25.986
 20
24.913
 21
24.824
  0
LINE
  8
0
 10
25.986
 11
26.02
 20
24.824
 21
24.732
  0
LINE
  8
0
 10
26.02
 11
26.049
 20
24.732
 21
24.638
  0
LINE
  8
0
 10
26.049
 11
26.071
 20
24.638
 21
24.543
  0
LINE
  8
0
 10
26.071
 11
26.087
 20
24.543
 21
24.446
  0
LINE
  8
0
 10
26.087
 11
26.097
 20
24.446
 21
24.348
  0
LINE
  8
0
 10
26.097
 11
26.1
 20
24.348
 21
24.25
  0
LINE
  8
0
 10
26.1
 11
26.1
 20
24.25
 21
1.5
  0
LINE
  8
0
 10
26.1
 11
26.097
 20
1.5
 21
1.402
  0
LINE
  8
0
 10
26.097
 11
26.087
 20
1.402
 21
1.304
  0
LINE
  8
0
 10
26.087
 11
26.071
 20
1.304
 21
1.207
  0
LINE
  8
0
 10
26.071
 11
26.049
 20
1.207
 21
1.112
  0
LINE
  8
0
 10
26.049
 11
26.02
 20
1.112
 21
1.018
  0
LINE
  8
0
 10
26.02
 11
25.986
 20
1.018
 21
0.926
  0
LINE
  8
0
 10
25.986
 11
25.945
 20
0.926
 21
0.837
  0
LINE
  8
0
 10
25.945
 11
25.899
 20
0.837
 21
0.75
  0
LINE
  8
0
 10
25.899
 11
25.847
 20
0.75
 21
0.667
  0
LINE
  8
0
 10
25.847
 11
25.79
 20
0.667
 21
0.587
  0
LINE
  8
0
 10
25.79
 11
25.728
 20
0.587
 21
0.511
  0
LINE
  8
0
 10
25.728
 11
25.661
 20
0.511
 21
0.439
  0
LINE
  8
0
 10
25.661
 11
25.589
 20
0.439
 21
0.372
  0
LINE
  8
0
 10
25.589
 11
25.513
 20
0.372
 21
0.31
  0
LINE
  8
0
 10
25.513
 11
25.433
 20
0.31
 21
0.253
  0
LINE
  8
0
 10
25.433
 11
25.35
 20
0.253
 21
0.201
  0
LINE
  8
0
 10
25.35
 11
25.263
 20
0.201
 21
0.155
  0
LINE
  8
0
 10
25.263
 11
25.174
 20
0.155
 21
0.114
  0
LINE
  8
0
 10
25.174
 11
25.082
 20
0.114
 21
0.08
  0
LINE
  8
0
 10
25.082
 11
24.988
 20
0.08
 21
0.051
  0
LINE
  8
0
 10
24.988
 11
24.893
 20
0.051
 21
0.029
  0
LINE
  8
0
 10
24.893
 11
24.796
 20
0.029
 21
0.013
  0
LINE
  8
0
 10
24.796
 11
24.698
 20
0.013
 21
0.003
  0
LINE
  8
0
 10
24.698
 11
24.6
 20
0.003
 21
0
  0
LINE
  8
0
 10
24.6
 11
22.2
 20
0
 21
0
  0
LINE
  8
0
 10
22.2
 11
22.102
 20
0
 21
0.003
  0
LINE
  8
0
 10
22.102
 11
22.004
 20
0.003
 21
0.013
  0
LINE
  8
0
 10
22.004
 11
21.907
 20
0.013
 21
0.029
  0
LINE
  8
0
 10
21.907
 11
21.812
 20
0.029
 21
0.051
  0
LINE
  8
0
 10
21.812
 11
21.718
 20
0.051
 21
0.08
  0
LINE
  8
0
 10
21.718
 11
21.626
 20
0.08
 21
0.114
  0
LINE
  8
0
 10
21.626
 11
21.537
 20
0.114
 21
0.155
  0
LINE
  8
0
 10
21.537
 11
21.45
 20
0.155
 21
0.201
  0
LINE
  8
0
 10
21.45
 11
21.367
 20
0.201
 21
0.253
  0
LINE
  8
0
 10
21.367
 11
21.287
 20
0.253
 21
0.31
  0
LINE
  8
0
 10
21.287
 11
21.211
 20
0.31
 21
0.372
  0
LINE
  8
0
 10
21.211
 11
21.139
 20
0.372
 21
0.439
  0
LINE
  8
0
 10
21.139
 11
21.072
 20
0.439
 21
0.511
  0
LINE
  8
0
 10
21.072
 11
21.01
 20
0.511
 21
0.587
  0
LINE
  8
0
 10
21.01
 11
20.953
 20
0.587
 21
0.667
  0
LINE
  8
0
 10
20.953
 11
20.901
 20
0.667
 21
0.75
  0
LINE
  8
0
 10
20.901
 11
20.855
 20
0.75
 21
0.837
  0
LINE
  8
0
 10
20.855
 11
20.814
 20
0.837
 21
0.926
  0
LINE
  8
0
 10
20.814
 11
20.78
 20
0.926
 21
1.018
  0
LINE
  8
0
 10
20.78
 11
20.751
 20
1.018
 21
1.112
  0
LINE
  8
0
 10
20.751
 11
20.729
 20
1.112
 21
1.207
  0
LINE
  8
0
 10
20.729
 11
20.713
 20
1.207
 21
1.304
  0
LINE
  8
0
 10
20.713
 11
20.703
 20
1.304
 21
1.402
  0
LINE
  8
0
 10
20.703
 11
20.7
 20
1.402
 21
1.5
  0
ENDSEC
  0
SECTION
  2
OBJECTS
  0
DICTIONARY
  0
ENDSEC
  0
EOF
